<svg width="107.000000" height="107.000000" viewBox="0 0 107 107" fill="none" xmlns="http://www.w3.org/2000/svg" xmlns:xlink="http://www.w3.org/1999/xlink">
	<desc>
			Created with Pixso.
	</desc>
	<defs>
		<filter id="filter_2_82_dd" x="0.000000" y="0.000000" width="107.000000" height="107.000000" filterUnits="userSpaceOnUse" color-interpolation-filters="sRGB">
			<feFlood flood-opacity="0" result="BackgroundImageFix"/>
			<feColorMatrix in="SourceAlpha" type="matrix" values="0 0 0 0 0 0 0 0 0 0 0 0 0 0 0 0 0 0 127 0" result="hardAlpha"/>
			<feOffset dx="0" dy="4"/>
			<feGaussianBlur stdDeviation="1.33333"/>
			<feComposite in2="hardAlpha" operator="out" k2="-1" k3="1"/>
			<feColorMatrix type="matrix" values="0 0 0 0 0 0 0 0 0 0 0 0 0 0 0 0 0 0 0.25 0"/>
			<feBlend mode="normal" in2="BackgroundImageFix" result="effect_dropShadow_1"/>
			<feBlend mode="normal" in="SourceGraphic" in2="effect_dropShadow_1" result="shape"/>
		</filter>
	</defs>
	<g filter="url(#filter_2_82_dd)">
		<rect id="Logo Yummy" width="99.000000" height="99.000000" transform="translate(4.000000 0.000000)" fill="#FFFFFF" fill-opacity="0"/>
		<circle id="Ellipse 11" cx="53.500000" cy="49.500000" r="49.500000" fill="#FFF7E9" fill-opacity="1.000000"/>
		<path id="XMLID_547_" d="M12.54 29.31C17.92 18.36 27.24 10.15 38.79 6.21C50.34 2.27 62.73 3.06 73.68 8.44C84.64 13.82 92.84 23.14 96.78 34.69C100.72 46.23 99.93 58.63 94.55 69.58C92.82 73.11 90.64 76.4 88.08 79.36C87.59 79.93 86.87 80.27 86.12 80.29C85.37 80.31 84.64 80 84.12 79.46C83.67 78.99 83.14 78.6 82.55 78.31C79.81 76.96 76.48 78.1 75.14 80.84C75.02 81.07 74.92 81.32 74.84 81.58C74.6 82.32 74.05 82.92 73.33 83.22C72.61 83.52 71.8 83.49 71.1 83.15C71.07 83.13 71.04 83.12 71.01 83.1C68.28 81.78 64.97 82.91 63.63 85.64C63.51 85.88 63.41 86.12 63.33 86.38C63.09 87.12 62.54 87.72 61.82 88.02C61.1 88.32 60.29 88.3 59.59 87.95C59.56 87.94 59.53 87.92 59.5 87.9C56.77 86.58 53.46 87.72 52.12 90.45C51.81 91.07 51.63 91.74 51.57 92.43C51.51 93.15 51.16 93.81 50.61 94.27C50.05 94.73 49.33 94.95 48.61 94.87C43.33 94.3 38.22 92.81 33.41 90.45C22.46 85.07 14.25 75.75 10.31 64.2C6.37 52.65 7.16 40.26 12.54 29.31Z" fill="#774E2E" fill-opacity="1.000000" fill-rule="evenodd"/>
		<path id="YUMMY" d="M12.27 43.45Q12.36 43.76 12.68 44Q14.81 45.59 16.76 47.34Q18.71 49.08 20.51 51.06Q20.62 51.2 20.69 51.34Q20.73 51.43 20.75 51.52Q20.76 51.58 20.76 51.64Q20.76 51.71 20.75 51.78Q20.73 51.84 20.71 51.93Q20.34 53.43 19.95 54.92Q19.55 56.41 19.14 57.92Q19.11 58.02 19.1 58.12Q19.09 58.23 19.09 58.3Q19.09 58.57 19.21 58.77Q19.24 58.82 19.27 58.86Q19.45 59.09 19.84 59.19L20.26 59.32Q20.49 59.4 20.68 59.4Q20.94 59.4 21.13 59.28Q21.44 59.1 21.56 58.62Q22.07 56.76 22.55 54.87Q23.04 52.97 23.5 51.12Q23.95 49.27 24.39 47.51Q24.83 45.75 25.26 44.16Q25.34 43.93 25.34 43.74Q25.34 43.55 25.28 43.39Q25.14 43.04 24.72 42.81L24.27 42.57Q24.12 42.46 23.97 42.43Q23.83 42.39 23.7 42.39Q23.51 42.39 23.36 42.47Q23.05 42.63 22.92 43.14L21.8 47.6Q21.75 47.91 21.58 48.01Q21.5 48.06 21.38 48.06Q21.21 48.06 20.96 47.83Q19.42 46.14 17.78 44.71Q16.13 43.28 14.35 41.94Q14.17 41.8 14 41.75Q13.83 41.69 13.67 41.69Q13.55 41.69 13.43 41.72Q13.13 41.8 12.9 42.1L12.53 42.51Q12.36 42.69 12.3 42.86Q12.25 42.99 12.24 43.12Q12.24 43.17 12.24 43.21Q12.24 43.34 12.27 43.45ZM78.67 43.45Q78.76 43.76 79.09 44Q81.21 45.59 83.16 47.34Q85.12 49.08 86.91 51.06Q87.02 51.2 87.09 51.34Q87.14 51.43 87.15 51.52Q87.16 51.58 87.16 51.64Q87.16 51.71 87.15 51.78Q87.14 51.84 87.11 51.93Q86.74 53.43 86.35 54.92Q85.96 56.41 85.55 57.92Q85.51 58.02 85.5 58.12Q85.5 58.23 85.5 58.3Q85.5 58.57 85.61 58.77Q85.64 58.82 85.68 58.86Q85.85 59.09 86.25 59.19L86.67 59.32Q86.9 59.4 87.09 59.4Q87.35 59.4 87.54 59.28Q87.84 59.1 87.97 58.62Q88.47 56.76 88.96 54.87Q89.44 52.97 89.9 51.12Q90.36 49.27 90.8 47.51Q91.23 45.75 91.67 44.16Q91.74 43.93 91.74 43.74Q91.74 43.55 91.68 43.39Q91.55 43.04 91.12 42.81L90.67 42.57Q90.52 42.46 90.38 42.43Q90.23 42.39 90.1 42.39Q89.91 42.39 89.77 42.47Q89.46 42.63 89.33 43.14L88.21 47.6Q88.16 47.91 87.98 48.01Q87.9 48.06 87.79 48.06Q87.61 48.06 87.37 47.83Q85.83 46.14 84.18 44.71Q82.53 43.28 80.75 41.94Q80.57 41.8 80.4 41.75Q80.23 41.69 80.08 41.69Q79.95 41.69 79.83 41.72Q79.54 41.8 79.3 42.1L78.93 42.51Q78.77 42.69 78.7 42.86Q78.66 42.99 78.65 43.12Q78.64 43.17 78.64 43.21Q78.64 43.34 78.67 43.45ZM28.51 43.96Q28.36 44.15 28.31 44.42Q28.13 45.4 28 46.53Q27.86 47.65 27.86 48.77Q27.86 50.38 28.31 51.74Q28.75 53.11 29.62 54.11Q29.83 54.36 30.07 54.57Q30.8 55.25 31.75 55.68Q33.02 56.24 34.64 56.24Q36.15 56.24 37.37 55.78Q38.53 55.34 39.37 54.57Q39.43 54.52 39.48 54.47Q39.69 54.26 39.88 54.04Q40.47 53.33 40.83 52.44Q41.31 51.25 41.31 49.82Q41.31 48.79 41.11 47.81Q40.92 46.84 40.58 45.92Q40.47 45.63 40.36 45.35Q40.1 44.73 39.8 44.14Q39.35 43.27 38.87 42.41Q38.62 41.96 38.27 41.86Q38.18 41.84 38.08 41.84Q37.77 41.84 37.43 42.07L36.91 42.41Q36.52 42.67 36.42 43.01Q36.39 43.13 36.39 43.25Q36.39 43.53 36.57 43.88Q36.99 44.64 37.36 45.39Q37.74 46.14 38.02 46.91Q38.31 47.68 38.48 48.47Q38.53 48.72 38.57 48.96Q38.65 49.51 38.65 50.07Q38.65 50.89 38.44 51.59Q38.23 52.29 37.82 52.8Q37.7 52.95 37.55 53.09Q37.22 53.4 36.78 53.61Q36.16 53.9 35.34 53.9Q33.89 53.9 32.96 53.45Q32.19 53.08 31.68 52.47Q31.58 52.35 31.48 52.22Q30.94 51.43 30.73 50.38Q30.52 49.33 30.52 48.15Q30.52 47.23 30.61 46.34Q30.7 45.45 30.84 44.63Q30.84 44.56 30.85 44.51Q30.87 44.46 30.87 44.4Q30.87 44.08 30.72 43.87Q30.67 43.81 30.62 43.76Q30.61 43.75 30.6 43.74Q30.35 43.53 29.93 43.53Q29.1 43.53 28.74 43.76Q28.6 43.84 28.51 43.96ZM56.3 47.96Q56.31 47.96 56.33 47.96Q56.51 47.96 56.74 48.39Q56.96 48.81 57.21 49.45Q57.46 50.1 57.71 50.86Q57.96 51.62 58.17 52.3Q58.38 52.98 58.53 53.48Q58.68 53.98 58.75 54.09Q58.84 54.26 58.98 54.35Q59.01 54.37 59.06 54.39Q59.25 54.47 59.61 54.47Q59.88 54.47 60.15 54.37Q60.42 54.27 60.64 54.1Q60.86 53.94 60.99 53.73Q61.11 53.54 61.12 53.34Q61.12 53.32 61.12 53.3Q61.12 53.15 61.09 53.04Q61.06 52.93 60.98 52.65Q60.69 51.71 60.38 50.66Q60.07 49.61 59.74 48.6Q59.42 47.58 59.08 46.65Q58.73 45.72 58.37 45.02Q58.01 44.32 57.63 43.9Q57.25 43.49 56.87 43.48Q56.86 43.48 56.85 43.48Q56.52 43.48 56.25 43.59Q55.98 43.7 55.74 43.95Q55.5 44.19 55.26 44.6Q55.02 45.01 54.71 45.62Q54.14 46.79 53.75 47.49Q53.36 48.19 53.08 48.55Q52.79 48.91 52.57 49.02Q52.43 49.09 52.29 49.11Q52.2 49.13 52.1 49.13Q51.86 49.13 51.56 48.88Q51.25 48.63 50.93 48.2Q50.6 47.76 50.28 47.16Q49.95 46.56 49.67 45.87Q48.98 44.18 48.37 43.42Q47.81 42.72 47.19 42.67Q47.15 42.67 47.1 42.67Q46.93 42.67 46.77 42.7Q46.22 42.82 45.75 43.35Q45.15 44.03 44.71 45.27Q44.27 46.51 44.03 48.25Q43.8 49.98 43.8 52.11Q43.8 53.79 44.08 54.55Q44.27 55.07 44.62 55.23Q44.79 55.31 44.99 55.31Q45.31 55.31 45.6 55.22Q45.88 55.13 46.09 54.99Q46.3 54.84 46.43 54.64Q46.5 54.53 46.54 54.41Q46.56 54.32 46.56 54.22Q46.56 53.54 46.49 52.91Q46.42 52.27 46.42 51.64Q46.42 50.57 46.48 49.68Q46.53 48.8 46.63 48.17Q46.74 47.54 46.88 47.19Q47.01 46.85 47.17 46.84Q47.18 46.84 47.18 46.84Q47.3 46.84 47.44 46.96Q47.59 47.08 47.73 47.34Q48.57 48.89 49.15 49.86Q49.73 50.82 50.18 51.37Q50.63 51.92 51.02 52.11Q51.12 52.17 51.23 52.2Q51.53 52.31 51.86 52.31Q52.33 52.31 52.87 52.02Q53.4 51.74 53.95 51.2Q54.5 50.67 55.04 49.91Q55.58 49.14 56.06 48.2Q56.16 47.98 56.3 47.96ZM75.16 47.96Q75.17 47.96 75.19 47.96Q75.37 47.96 75.59 48.39Q75.82 48.81 76.07 49.45Q76.32 50.1 76.57 50.86Q76.82 51.62 77.03 52.3Q77.24 52.98 77.39 53.48Q77.54 53.98 77.6 54.09Q77.69 54.26 77.84 54.35Q77.87 54.37 77.92 54.39Q78.11 54.47 78.47 54.47Q78.74 54.47 79.01 54.37Q79.28 54.27 79.5 54.1Q79.72 53.94 79.85 53.73Q79.97 53.54 79.98 53.34Q79.98 53.32 79.98 53.3Q79.98 53.15 79.95 53.04Q79.92 52.93 79.84 52.65Q79.55 51.71 79.24 50.66Q78.93 49.61 78.6 48.6Q78.28 47.58 77.93 46.65Q77.59 45.72 77.23 45.02Q76.87 44.32 76.48 43.9Q76.11 43.49 75.73 43.48Q75.72 43.48 75.71 43.48Q75.38 43.48 75.11 43.59Q74.84 43.7 74.6 43.95Q74.36 44.19 74.12 44.6Q73.88 45.01 73.57 45.62Q73 46.79 72.61 47.49Q72.22 48.19 71.94 48.55Q71.65 48.91 71.43 49.02Q71.29 49.09 71.15 49.11Q71.06 49.13 70.96 49.13Q70.72 49.13 70.42 48.88Q70.11 48.63 69.79 48.2Q69.46 47.76 69.14 47.16Q68.81 46.56 68.53 45.87Q67.83 44.18 67.23 43.42Q66.67 42.72 66.05 42.67Q66.01 42.67 65.96 42.67Q65.79 42.67 65.63 42.7Q65.08 42.82 64.61 43.35Q64 44.03 63.57 45.27Q63.13 46.51 62.89 48.25Q62.66 49.98 62.66 52.11Q62.66 53.79 62.94 54.55Q63.13 55.07 63.48 55.23Q63.65 55.31 63.85 55.31Q64.17 55.31 64.46 55.22Q64.74 55.13 64.95 54.99Q65.16 54.84 65.29 54.64Q65.36 54.53 65.39 54.41Q65.42 54.32 65.42 54.22Q65.42 53.54 65.35 52.91Q65.28 52.27 65.28 51.64Q65.28 50.57 65.33 49.68Q65.39 48.8 65.49 48.17Q65.59 47.54 65.73 47.19Q65.87 46.85 66.03 46.84Q66.03 46.84 66.04 46.84Q66.15 46.84 66.3 46.96Q66.45 47.08 66.59 47.34Q67.43 48.89 68.01 49.86Q68.58 50.82 69.04 51.37Q69.49 51.92 69.88 52.11Q69.98 52.17 70.09 52.2Q70.39 52.31 70.72 52.31Q71.19 52.31 71.73 52.02Q72.26 51.74 72.81 51.2Q73.36 50.67 73.9 49.91Q74.44 49.14 74.92 48.2Q75.02 47.98 75.16 47.96Z" fill="#FFF6E7" fill-opacity="1.000000" fill-rule="evenodd"/>
		<path id="Vector" d="M83.47 22.57C83.25 21.67 81.6 20.99 80.56 21.45C79.06 22.05 78.39 22.57 78.91 24.3C79.06 24.9 79.81 26.25 80.18 26.33C80.71 26.55 81.98 26.63 82.35 26.25C83.47 25.2 83.62 23.25 83.47 22.57Z" fill="#DDA85F" fill-opacity="1.000000" fill-rule="nonzero"/>
		<path id="Vector" d="M80.3 25.17C80.44 25.63 82.71 24.81 82.44 23.99C81.92 22.62 81.9 22.41 81.47 22.49C80.65 22.75 80.23 24.81 80.3 25.17Z" fill="#F2CB7D" fill-opacity="1.000000" fill-rule="nonzero"/>
		<path id="Vector" d="M29.84 28.91C29.61 28 27.97 27.33 26.92 27.78C25.42 28.38 24.75 28.91 25.27 30.63C25.42 31.23 26.17 32.58 26.55 32.66C27.07 32.88 28.34 32.96 28.71 32.58C29.84 31.53 29.99 29.58 29.84 28.91Z" fill="#DDA85F" fill-opacity="1.000000" fill-rule="nonzero"/>
		<path id="Vector" d="M26.67 31.5C26.8 31.96 29.07 31.15 28.8 30.33C28.28 28.95 28.27 28.75 27.83 28.82C27.02 29.08 26.59 31.14 26.67 31.5Z" fill="#F2CB7D" fill-opacity="1.000000" fill-rule="nonzero"/>
		<path id="Vector" d="M83.87 69.97C83.74 69.44 82.77 69.04 82.16 69.3C81.28 69.66 80.88 69.97 81.19 70.98C81.28 71.33 81.72 72.13 81.94 72.17C82.24 72.31 82.99 72.35 83.21 72.13C83.87 71.51 83.96 70.36 83.87 69.97Z" fill="#DDA85F" fill-opacity="1.000000" fill-rule="nonzero"/>
		<path id="Vector" d="M82.01 71.49C82.09 71.76 83.42 71.28 83.26 70.8C82.96 69.99 82.95 69.87 82.69 69.92C82.21 70.07 81.96 71.28 82.01 71.49Z" fill="#F2CB7D" fill-opacity="1.000000" fill-rule="nonzero"/>
		<path id="Vector" d="M41.5 12.48C40.23 12.8 39.27 15.13 39.91 16.61C40.76 18.73 42.77 19.04 44.99 17.88C46.9 16.93 47 13.54 46.47 12.9C44.88 11.32 42.45 12.27 41.5 12.48Z" fill="#DDA85F" fill-opacity="1.000000" fill-rule="nonzero"/>
		<path id="Vector" d="M41.43 13.85C40.8 14.59 40.27 17.56 41.86 17.13C44.71 16.29 46.73 13.43 45.45 13C43.87 12.48 42.17 13 41.43 13.85Z" fill="#F2CB7D" fill-opacity="1.000000" fill-rule="nonzero"/>
		<path id="Vector" d="M54.93 70C53.91 70.25 53.15 72.11 53.66 73.29C54.34 74.98 55.94 75.24 57.72 74.31C59.24 73.55 59.32 70.84 58.9 70.34C57.63 69.07 55.69 69.83 54.93 70Z" fill="#DDA85F" fill-opacity="1.000000" fill-rule="nonzero"/>
		<path id="Vector" d="M54.88 71.09C54.37 71.68 53.95 74.05 55.22 73.71C57.5 73.04 59.1 70.76 58.09 70.42C56.82 69.99 55.47 70.42 54.88 71.09Z" fill="#F2CB7D" fill-opacity="1.000000" fill-rule="nonzero"/>
		<path id="Vector" d="M64.91 31.33C64.65 30.3 62.78 29.53 61.59 30.05C59.89 30.73 59.12 31.33 59.72 33.29C59.89 33.97 60.74 35.51 61.17 35.6C61.76 35.85 63.21 35.94 63.63 35.51C64.91 34.32 65.08 32.1 64.91 31.33Z" fill="#DDA85F" fill-opacity="1.000000" fill-rule="nonzero"/>
		<path id="Vector" d="M62.69 35.12C63.42 35.4 64.48 31.8 63.16 31.33C60.86 30.62 60.58 30.43 60.27 31.05C59.84 32.3 62.14 34.86 62.69 35.12Z" fill="#F2CB7D" fill-opacity="1.000000" fill-rule="nonzero"/>
		<path id="Vector" d="M32.73 65.25C32.47 64.22 30.6 63.45 29.41 63.97C27.71 64.65 26.94 65.25 27.54 67.21C27.71 67.89 28.56 69.43 28.98 69.52C29.58 69.77 31.03 69.86 31.45 69.43C32.73 68.24 32.9 66.02 32.73 65.25Z" fill="#DDA85F" fill-opacity="1.000000" fill-rule="nonzero"/>
		<path id="Vector" d="M30.5 69.04C31.24 69.32 32.3 65.72 30.97 65.25C28.68 64.54 28.39 64.35 28.08 64.97C27.66 66.22 29.96 68.78 30.5 69.04Z" fill="#F2CB7D" fill-opacity="1.000000" fill-rule="nonzero"/>
		<path id="Vector" d="M39.69 81.57C39.49 80.78 38.04 80.19 37.12 80.58C35.81 81.11 35.21 81.57 35.67 83.09C35.81 83.61 36.46 84.8 36.79 84.86C37.25 85.06 38.37 85.13 38.7 84.8C39.69 83.88 39.82 82.16 39.69 81.57Z" fill="#DDA85F" fill-opacity="1.000000" fill-rule="nonzero"/>
		<path id="Vector" d="M38.57 80.98C38.44 80.38 35.67 81.24 35.94 82.3C36.46 84.07 36.46 84.34 36.99 84.27C37.98 84.01 38.64 81.44 38.57 80.98Z" fill="#F2CB7D" fill-opacity="1.000000" fill-rule="nonzero"/>
	</g>
</svg>
