<svg width="91.896576" height="79.000000" viewBox="0 0 91.8966 79" fill="none" xmlns="http://www.w3.org/2000/svg" xmlns:xlink="http://www.w3.org/1999/xlink">
	<desc>
			Created with Pixso.
	</desc>
	<defs/>
	<rect id="Logo Yummy" width="91.896576" height="79.000000" fill="#FFFFFF" fill-opacity="0"/>
	<circle id="Ellipse 11" cx="39.500000" cy="39.500000" r="39.500000" fill="#FFF7E9" fill-opacity="1.000000"/>
	<path id="XMLID_547_" d="M7.93 23.39C12.92 14.65 21.57 8.1 32.29 4.95C43.01 1.81 54.51 2.44 64.68 6.73C74.85 11.02 82.46 18.46 86.12 27.68C89.78 36.89 89.05 46.78 84.06 55.52C82.44 58.34 80.42 60.97 78.05 63.33C77.59 63.78 76.93 64.05 76.23 64.07C75.53 64.08 74.85 63.84 74.37 63.41C73.95 63.03 73.46 62.72 72.91 62.49C70.37 61.41 67.28 62.32 66.03 64.51C65.93 64.69 65.83 64.89 65.76 65.1C65.53 65.69 65.02 66.17 64.35 66.41C63.69 66.65 62.93 66.62 62.28 66.35C62.26 66.34 62.23 66.32 62.2 66.31C59.66 65.25 56.59 66.16 55.35 68.34C55.24 68.53 55.15 68.72 55.07 68.93C54.85 69.52 54.34 70 53.67 70.24C53 70.48 52.25 70.46 51.6 70.18C51.57 70.17 51.55 70.16 51.52 70.15C48.98 69.09 45.91 69.99 44.66 72.17C44.38 72.67 44.21 73.2 44.16 73.76C44.1 74.33 43.78 74.86 43.26 75.23C42.74 75.59 42.08 75.77 41.41 75.7C36.51 75.25 31.76 74.06 27.3 72.18C17.13 67.89 9.52 60.45 5.86 51.23C2.2 42.02 2.93 32.13 7.93 23.39Z" fill="#774E2E" fill-opacity="1.000000" fill-rule="evenodd"/>
	<path id="YUMMY" d="M7.93 34.12Q8 34.36 8.26 34.56Q9.96 35.83 11.52 37.22Q13.07 38.61 14.51 40.19C14.57 40.27 14.62 40.34 14.65 40.41C14.69 40.49 14.71 40.57 14.71 40.65C14.71 40.69 14.71 40.73 14.7 40.76C14.69 40.79 14.68 40.83 14.67 40.88Q14.37 42.08 14.06 43.27Q13.74 44.45 13.42 45.66C13.4 45.72 13.39 45.77 13.38 45.83C13.38 45.88 13.38 45.93 13.38 45.97Q13.38 46.18 13.47 46.34Q13.49 46.38 13.52 46.41C13.62 46.54 13.77 46.62 13.98 46.68L14.31 46.78C14.43 46.82 14.55 46.84 14.65 46.84Q14.86 46.84 15.01 46.75Q15.25 46.6 15.35 46.22C15.62 45.23 15.88 44.23 16.14 43.23Q16.53 41.71 16.89 40.24Q17.26 38.76 17.61 37.35C17.84 36.42 18.07 35.52 18.3 34.68C18.34 34.56 18.36 34.45 18.36 34.34C18.36 34.03 18.2 33.79 17.87 33.6L17.51 33.41C17.43 33.36 17.35 33.32 17.27 33.3C17.19 33.28 17.12 33.27 17.05 33.27Q16.9 33.27 16.79 33.33Q16.54 33.46 16.43 33.87L15.54 37.43C15.5 37.67 15.39 37.8 15.21 37.8C15.11 37.8 15 37.73 14.87 37.61Q13.64 36.26 12.33 35.12Q11.01 33.98 9.59 32.91C9.5 32.84 9.4 32.79 9.31 32.76Q9.18 32.71 9.05 32.71C8.82 32.71 8.61 32.82 8.44 33.03L8.14 33.37Q8.01 33.51 7.96 33.65C7.92 33.74 7.91 33.83 7.91 33.93Q7.91 34.03 7.93 34.12ZM60.92 34.12Q60.99 34.36 61.25 34.56Q62.95 35.83 64.5 37.22Q66.06 38.61 67.49 40.19C67.56 40.27 67.6 40.34 67.64 40.41C67.68 40.49 67.7 40.57 67.7 40.65C67.7 40.69 67.69 40.73 67.69 40.76C67.68 40.79 67.67 40.83 67.66 40.88C67.46 41.68 67.26 42.48 67.05 43.27C66.84 44.06 66.62 44.86 66.41 45.66C66.39 45.72 66.38 45.77 66.37 45.83C66.37 45.88 66.37 45.93 66.37 45.97Q66.37 46.18 66.46 46.34Q66.48 46.38 66.51 46.41C66.6 46.54 66.76 46.62 66.97 46.68L67.3 46.78C67.42 46.82 67.53 46.84 67.64 46.84Q67.84 46.84 68 46.75Q68.24 46.6 68.34 46.22C68.61 45.23 68.87 44.23 69.13 43.23Q69.51 41.71 69.88 40.24C70.12 39.25 70.36 38.29 70.6 37.35C70.83 36.42 71.06 35.52 71.29 34.68C71.33 34.56 71.35 34.45 71.35 34.34C71.35 34.03 71.19 33.79 70.85 33.6L70.5 33.41C70.42 33.36 70.34 33.32 70.26 33.3C70.18 33.28 70.11 33.27 70.04 33.27C69.73 33.27 69.52 33.47 69.42 33.87L68.53 37.43Q68.49 37.68 68.35 37.76Q68.28 37.8 68.19 37.8C68.1 37.8 67.99 37.73 67.86 37.61C67.04 36.71 66.19 35.88 65.32 35.12C64.44 34.36 63.53 33.62 62.58 32.91C62.49 32.84 62.39 32.79 62.3 32.76C62.21 32.72 62.12 32.71 62.04 32.71C61.81 32.71 61.6 32.82 61.42 33.03L61.13 33.37Q61 33.51 60.95 33.65C60.91 33.74 60.9 33.83 60.9 33.93Q60.9 34.03 60.92 34.12ZM21.08 34.36C20.89 34.48 20.77 34.66 20.73 34.89C20.64 35.41 20.56 35.97 20.48 36.57C20.41 37.17 20.38 37.77 20.38 38.36Q20.38 39.64 20.73 40.73Q21.09 41.83 21.78 42.62C22.24 43.15 22.81 43.57 23.48 43.87Q24.49 44.32 25.79 44.32Q26.99 44.32 27.97 43.95C28.62 43.71 29.18 43.36 29.65 42.91C30.11 42.46 30.47 41.92 30.73 41.29C30.98 40.66 31.11 39.96 31.11 39.2C31.11 38.65 31.06 38.12 30.95 37.6C30.85 37.08 30.7 36.58 30.52 36.09C30.34 35.6 30.14 35.13 29.9 34.66C29.66 34.2 29.42 33.74 29.16 33.29Q28.96 32.92 28.68 32.85Q28.61 32.83 28.53 32.83C28.37 32.83 28.19 32.89 28.01 33.01L27.6 33.29C27.32 33.47 27.18 33.69 27.18 33.96Q27.18 34.18 27.32 34.46C27.54 34.86 27.76 35.26 27.96 35.66C28.16 36.06 28.33 36.47 28.48 36.88Q28.71 37.49 28.85 38.12C28.94 38.54 28.99 38.97 28.99 39.4C28.99 39.83 28.93 40.24 28.82 40.61C28.71 40.98 28.54 41.3 28.32 41.58C28.1 41.85 27.83 42.07 27.49 42.22C27.16 42.38 26.78 42.46 26.35 42.46Q25.19 42.46 24.44 42.09C23.95 41.85 23.55 41.53 23.27 41.11C22.98 40.69 22.78 40.21 22.67 39.65C22.56 39.09 22.5 38.5 22.5 37.87Q22.5 37.14 22.57 36.43Q22.64 35.71 22.75 35.05Q22.75 35 22.76 34.96Q22.77 34.92 22.77 34.87Q22.77 34.62 22.65 34.45Q22.62 34.4 22.58 34.36Q22.57 34.36 22.56 34.35Q22.36 34.18 22.02 34.18C21.58 34.18 21.27 34.24 21.08 34.36ZM43.07 37.72Q43.08 37.71 43.09 37.71Q43.23 37.71 43.42 38.05C43.54 38.28 43.66 38.57 43.8 38.91Q43.99 39.42 44.19 40.03Q44.39 40.64 44.56 41.18C44.67 41.54 44.77 41.86 44.85 42.12C44.93 42.38 44.99 42.55 45.02 42.61C45.08 42.72 45.16 42.8 45.27 42.85C45.37 42.89 45.52 42.91 45.71 42.91C45.85 42.91 46 42.88 46.14 42.83C46.29 42.78 46.42 42.71 46.53 42.62Q46.71 42.49 46.81 42.32C46.88 42.21 46.92 42.09 46.92 41.98C46.92 41.9 46.91 41.83 46.89 41.77C46.88 41.71 46.85 41.61 46.81 41.46C46.65 40.96 46.49 40.43 46.32 39.87C46.16 39.31 45.99 38.76 45.82 38.22C45.64 37.68 45.47 37.16 45.28 36.67C45.1 36.17 44.91 35.74 44.72 35.37C44.53 35 44.33 34.7 44.13 34.48C43.92 34.25 43.72 34.14 43.51 34.14C43.33 34.14 43.17 34.17 43.03 34.23C42.89 34.28 42.75 34.38 42.62 34.51C42.5 34.64 42.37 34.82 42.24 35.03C42.11 35.25 41.96 35.52 41.8 35.85C41.5 36.47 41.24 36.97 41.04 37.34Q40.73 37.9 40.5 38.19C40.35 38.38 40.21 38.5 40.09 38.56C39.97 38.62 39.85 38.65 39.72 38.65C39.59 38.65 39.45 38.58 39.28 38.45C39.12 38.32 38.95 38.14 38.78 37.9C38.61 37.67 38.44 37.39 38.26 37.07C38.09 36.76 37.93 36.41 37.78 36.05C37.41 35.15 37.06 34.5 36.74 34.1Q36.29 33.53 35.8 33.49Q35.77 33.49 35.73 33.49C35.33 33.49 34.97 33.67 34.65 34.03C34.33 34.4 34.05 34.91 33.82 35.57C33.58 36.23 33.4 37.02 33.28 37.94Q33.09 39.33 33.09 41.02Q33.09 42.36 33.32 42.97C33.46 43.38 33.71 43.58 34.05 43.58C34.22 43.58 34.38 43.56 34.53 43.51C34.68 43.46 34.81 43.4 34.92 43.32C35.04 43.25 35.13 43.15 35.19 43.05C35.26 42.94 35.29 42.83 35.29 42.71C35.29 42.35 35.28 42 35.24 41.66C35.2 41.32 35.18 40.99 35.18 40.65Q35.18 39.8 35.23 39.09C35.26 38.62 35.3 38.22 35.36 37.88C35.41 37.55 35.47 37.29 35.55 37.1C35.62 36.91 35.7 36.82 35.79 36.82C35.85 36.82 35.92 36.85 36 36.92C36.08 36.98 36.15 37.08 36.23 37.22C36.68 38.04 37.05 38.71 37.36 39.23C37.67 39.74 37.94 40.14 38.18 40.43C38.42 40.73 38.65 40.92 38.85 41.03C39.06 41.13 39.28 41.19 39.53 41.19Q39.9 41.19 40.33 40.96C40.61 40.81 40.9 40.59 41.19 40.3C41.48 40.02 41.77 39.67 42.06 39.27C42.35 38.86 42.62 38.41 42.88 37.91Q42.96 37.73 43.07 37.72ZM57.93 37.91C57.99 37.78 58.06 37.71 58.14 37.71Q58.28 37.71 58.47 38.05C58.59 38.28 58.71 38.57 58.85 38.91C58.98 39.25 59.11 39.62 59.24 40.03Q59.44 40.64 59.61 41.18C59.72 41.54 59.82 41.86 59.9 42.12C59.98 42.38 60.04 42.55 60.07 42.61C60.13 42.72 60.21 42.8 60.32 42.85C60.42 42.89 60.57 42.91 60.76 42.91C60.9 42.91 61.05 42.88 61.19 42.83C61.34 42.78 61.47 42.71 61.58 42.62C61.7 42.53 61.79 42.43 61.86 42.32C61.93 42.21 61.97 42.09 61.97 41.98C61.97 41.9 61.96 41.83 61.94 41.77C61.93 41.71 61.9 41.61 61.86 41.46C61.7 40.96 61.54 40.43 61.37 39.87Q61.12 39.03 60.87 38.22C60.69 37.68 60.52 37.16 60.33 36.67C60.15 36.17 59.96 35.74 59.77 35.37C59.58 35 59.38 34.7 59.18 34.48C58.97 34.25 58.77 34.14 58.56 34.14C58.38 34.14 58.22 34.17 58.08 34.23C57.94 34.28 57.8 34.38 57.67 34.51C57.54 34.64 57.42 34.82 57.29 35.03C57.16 35.25 57.01 35.52 56.85 35.85C56.55 36.47 56.29 36.97 56.08 37.34Q55.77 37.9 55.55 38.19C55.39 38.38 55.26 38.5 55.14 38.56C55.02 38.62 54.9 38.65 54.77 38.65C54.64 38.65 54.5 38.58 54.33 38.45C54.17 38.32 54 38.14 53.83 37.9C53.66 37.67 53.49 37.39 53.31 37.07C53.14 36.76 52.98 36.41 52.83 36.05Q52.27 34.7 51.79 34.1Q51.34 33.53 50.85 33.49Q50.82 33.49 50.78 33.49C50.38 33.49 50.02 33.67 49.7 34.03C49.38 34.4 49.1 34.91 48.87 35.57Q48.52 36.56 48.33 37.94C48.2 38.87 48.14 39.89 48.14 41.02C48.14 41.92 48.22 42.57 48.36 42.97C48.51 43.38 48.76 43.58 49.1 43.58Q49.35 43.58 49.58 43.51C49.73 43.46 49.86 43.4 49.97 43.32C50.09 43.25 50.17 43.15 50.24 43.05C50.31 42.94 50.34 42.83 50.34 42.71C50.34 42.35 50.33 42 50.29 41.66C50.25 41.32 50.23 40.99 50.23 40.65C50.23 40.08 50.25 39.56 50.28 39.09C50.31 38.62 50.35 38.22 50.4 37.88C50.46 37.55 50.52 37.29 50.6 37.1C50.67 36.91 50.75 36.82 50.84 36.82C50.9 36.82 50.97 36.85 51.05 36.92C51.13 36.98 51.2 37.08 51.28 37.22C51.72 38.04 52.1 38.71 52.41 39.23C52.72 39.74 52.99 40.14 53.23 40.43C53.47 40.73 53.7 40.92 53.9 41.03C54.11 41.13 54.33 41.19 54.58 41.19C54.83 41.19 55.09 41.11 55.38 40.96C55.66 40.81 55.95 40.59 56.24 40.3C56.53 40.02 56.82 39.67 57.11 39.27C57.4 38.86 57.67 38.41 57.93 37.91Z" fill="#FFF6E7" fill-opacity="1.000000" fill-rule="evenodd"/>
	<path id="Vector" d="M73.77 18.01C73.56 17.29 72.04 16.75 71.06 17.11C69.67 17.59 69.05 18.01 69.54 19.39C69.67 19.87 70.37 20.95 70.72 21.01C71.2 21.19 72.38 21.25 72.73 20.95C73.77 20.11 73.91 18.55 73.77 18.01Z" fill="#DDA85F" fill-opacity="1.000000" fill-rule="nonzero"/>
	<path id="Vector" d="M70.83 20.08C70.96 20.45 73.06 19.8 72.81 19.15C72.33 18.05 72.31 17.88 71.91 17.95C71.15 18.15 70.76 19.79 70.83 20.08Z" fill="#F2CB7D" fill-opacity="1.000000" fill-rule="nonzero"/>
	<path id="Vector" d="M23.98 23.07C23.77 22.35 22.25 21.81 21.27 22.17C19.89 22.65 19.26 23.07 19.75 24.44C19.89 24.92 20.58 26 20.93 26.06C21.41 26.24 22.59 26.3 22.94 26C23.98 25.16 24.12 23.6 23.98 23.07Z" fill="#DDA85F" fill-opacity="1.000000" fill-rule="nonzero"/>
	<path id="Vector" d="M21.04 25.14C21.17 25.5 23.27 24.85 23.02 24.2C22.54 23.1 22.52 22.94 22.12 23C21.37 23.21 20.97 24.85 21.04 25.14Z" fill="#F2CB7D" fill-opacity="1.000000" fill-rule="nonzero"/>
	<path id="Vector" d="M74.14 55.83C74.02 55.41 73.12 55.09 72.55 55.3C71.73 55.58 71.36 55.83 71.65 56.64C71.73 56.92 72.14 57.56 72.34 57.59C72.63 57.7 73.32 57.73 73.53 57.56C74.14 57.06 74.22 56.15 74.14 55.83Z" fill="#DDA85F" fill-opacity="1.000000" fill-rule="nonzero"/>
	<path id="Vector" d="M72.41 57.05C72.49 57.26 73.72 56.88 73.58 56.5C73.29 55.85 73.28 55.75 73.05 55.79C72.6 55.91 72.37 56.88 72.41 57.05Z" fill="#F2CB7D" fill-opacity="1.000000" fill-rule="nonzero"/>
	<path id="Vector" d="M34.81 9.96C33.63 10.21 32.74 12.07 33.33 13.25C34.12 14.94 35.99 15.2 38.05 14.27C39.82 13.51 39.92 10.8 39.42 10.3C37.95 9.03 35.69 9.79 34.81 9.96Z" fill="#DDA85F" fill-opacity="1.000000" fill-rule="nonzero"/>
	<path id="Vector" d="M34.75 11.05C34.16 11.64 33.67 14.01 35.14 13.67C37.79 12.99 39.66 10.71 38.48 10.38C37.01 9.95 35.43 10.38 34.75 11.05Z" fill="#F2CB7D" fill-opacity="1.000000" fill-rule="nonzero"/>
	<path id="Vector" d="M47.27 55.86C46.33 56.06 45.63 57.54 46.1 58.49C46.73 59.84 48.22 60.04 49.86 59.3C51.27 58.69 51.35 56.53 50.96 56.13C49.78 55.12 47.98 55.72 47.27 55.86Z" fill="#DDA85F" fill-opacity="1.000000" fill-rule="nonzero"/>
	<path id="Vector" d="M47.23 56.73C46.76 57.2 46.36 59.09 47.54 58.82C49.66 58.28 51.15 56.46 50.21 56.19C49.03 55.85 47.78 56.19 47.23 56.73Z" fill="#F2CB7D" fill-opacity="1.000000" fill-rule="nonzero"/>
	<path id="Vector" d="M56.54 25C56.3 24.18 54.56 23.57 53.46 23.98C51.88 24.52 51.17 25 51.72 26.56C51.88 27.11 52.67 28.34 53.06 28.4C53.62 28.61 54.96 28.68 55.35 28.34C56.54 27.38 56.7 25.61 56.54 25Z" fill="#DDA85F" fill-opacity="1.000000" fill-rule="nonzero"/>
	<path id="Vector" d="M54.47 28.02C55.16 28.25 56.14 25.38 54.91 25C52.78 24.43 52.52 24.28 52.23 24.77C51.84 25.78 53.97 27.82 54.47 28.02Z" fill="#F2CB7D" fill-opacity="1.000000" fill-rule="nonzero"/>
	<path id="Vector" d="M26.67 52.06C26.43 51.25 24.69 50.63 23.59 51.04C22.01 51.59 21.29 52.06 21.85 53.63C22.01 54.18 22.8 55.4 23.19 55.47C23.74 55.68 25.09 55.74 25.48 55.4C26.67 54.45 26.82 52.68 26.67 52.06Z" fill="#DDA85F" fill-opacity="1.000000" fill-rule="nonzero"/>
	<path id="Vector" d="M24.6 55.09C25.28 55.32 26.27 52.44 25.04 52.07C22.91 51.5 22.64 51.35 22.36 51.84C21.96 52.84 24.09 54.88 24.6 55.09Z" fill="#F2CB7D" fill-opacity="1.000000" fill-rule="nonzero"/>
	<path id="Vector" d="M33.13 65.09C32.95 64.46 31.6 63.99 30.75 64.3C29.52 64.72 28.97 65.09 29.4 66.3C29.52 66.72 30.13 67.67 30.44 67.72C30.87 67.88 31.91 67.93 32.21 67.67C33.13 66.93 33.25 65.56 33.13 65.09Z" fill="#DDA85F" fill-opacity="1.000000" fill-rule="nonzero"/>
	<path id="Vector" d="M32.09 64.62C31.97 64.14 29.4 64.83 29.65 65.67C30.13 67.09 30.13 67.3 30.62 67.25C31.54 67.04 32.15 64.99 32.09 64.62Z" fill="#F2CB7D" fill-opacity="1.000000" fill-rule="nonzero"/>
</svg>
